#!OML:ASF F:\VICON\USERDATA\INSTALL\rory3\rory3.ASF
:FULLY-SPECIFIED
:DEGREES
421
root -2.51814 18.0847 5.66224 176.036 102.542 -182.556
lowerback 25.2661 1.44777 1.04557
upperback 3.98042 3.142 5.60957
thorax -9.92729 1.70084 4.61167
lowerneck -12.7847 -2.00818 -3.33813
upperneck 21.0468 -1.04422 -3.18654
head 8.69572 -0.978709 -0.618106
rclavicle 2.3059e-014 2.22639e-014
rhumerus 4.33492 6.3336 -55.7527
rradius 74.9793
rwrist 25.6918
rhand -7.74739 9.84556
rfingers 7.12502
rthumb 18.1519 -19.3275
lclavicle 2.3059e-014 2.22639e-014
lhumerus -39.8357 -1.75443 86.0565
lradius 66.1425
lwrist 4.75704
lhand -11.9306 45.1764
lfingers 7.12502
lthumb 14.1239 74.6764
rfemur -14.0175 2.47513 24.1809
rtibia 34.524
rfoot -19.0023 -17.1188
rtoes 26.0981
lfemur -19.6929 1.37315 -16.2064
ltibia 43.2414
lfoot -12.5561 15.7436
ltoes -1.73752
422
root -2.51281 18.0806 5.68403 176.92 102.71 -181.619
lowerback 25.1669 1.55403 1.01324
upperback 3.96208 3.25079 5.51425
thorax -9.90008 1.74846 4.48656
lowerneck -12.1677 -2.28449 -2.72069
upperneck 20.3623 -1.4966 -3.75933
head 8.33676 -1.18787 -0.947374
rclavicle 2.34566e-014 8.11041e-014
rhumerus 3.68678 7.21559 -56.6359
rradius 72.3286
rwrist 26.526
rhand -8.65538 9.37649
rfingers 7.12502
rthumb 17.2781 -19.8754
lclavicle 2.34566e-014 8.11041e-014
lhumerus -39.7663 -2.19629 86.3809
lradius 66.353
lwrist 4.75269
lhand -12.3384 45.2007
lfingers 7.12502
lthumb 13.7309 74.7276
rfemur -14.0175 2.58509 24.0339
rtibia 34.6788
rfoot -19.148 -17.0593
rtoes 26.1467
lfemur -19.5486 1.27888 -16.3961
ltibia 43.0652
lfoot -13.3899 13.258
ltoes -1.21742
423
root -2.51422 18.0757 5.70592 174.758 102.571 -183.177
lowerback 25.6982 1.49335 1.54557
upperback 4.05436 3.36327 5.61713
thorax -10.0609 1.79023 4.25013
lowerneck -12.007 -2.4212 -2.9832
upperneck 20.3513 -1.6503 -3.67717
head 8.30755 -1.26864 -0.890209
rclavicle -2.78299e-015 -1.90833e-014
rhumerus 2.98915 7.87641 -57.4365
rradius 69.5077
rwrist 27.291
rhand -9.4672 8.94485
rfingers 7.12502
rthumb 16.4967 -20.3738
lclavicle -2.78299e-015 -1.90833e-014
lhumerus -39.7227 -3.10275 86.8349
lradius 66.6459
lwrist 5.04824
lhand -12.4561 45.2312
lfingers 7.12502
lthumb 13.6174 74.7658
rfemur -13.3228 2.30722 24.4738
rtibia 34.8027
rfoot -19.3184 -16.9648
rtoes 26.0188
lfemur -18.8777 0.840316 -15.9119
ltibia 42.9081
lfoot -14.4262 10.2152
ltoes 3.38357
424
root -2.50798 18.0771 5.70346 178.56 102.773 -179.762
lowerback 25.1199 1.80956 1.02456
upperback 3.93997 3.57975 5.49777
thorax -9.92437 1.90122 4.35101
lowerneck -12.0421 -2.60696 -3.19263
upperneck 20.4736 -1.83531 -3.73984
head 8.35778 -1.37769 -0.898069
rclavicle 2.0276e-014 6.36111e-015
rhumerus 2.41125 8.38722 -57.6502
rradius 66.57
rwrist 27.8268
rhand -9.86812 9.38815
rfingers 7.12502
rthumb 16.1106 -19.9622
lclavicle 2.0276e-014 6.36111e-015
lhumerus -39.5414 -3.84596 87.6158
lradius 66.8704
lwrist 5.39224
lhand -12.0813 44.781
lfingers 7.12502
lthumb 13.9786 74.291
rfemur -13.9622 2.21835 23.5908
rtibia 35.063
rfoot -18.9151 -16.6654
rtoes 24.5492
lfemur -19.2342 0.481082 -16.7622
ltibia 42.6303
lfoot -15.355 7.50499
ltoes 7.97257
425
root -2.5034 18.0681 5.72163 178.595 102.737 -179.506
lowerback 25.1822 1.94292 0.91676
upperback 3.98846 3.74909 5.65245
thorax -9.93364 1.99091 4.53019
lowerneck -12.0498 -2.75155 -3.4157
upperneck 20.5796 -1.95076 -3.85084
head 8.39822 -1.45914 -0.911983
rclavicle 5.96354e-015 -2.06736e-014
rhumerus 1.90363 8.54551 -57.9532
rradius 63.6903
rwrist 28.6392
rhand -9.39959 9.48967
rfingers 7.12502
rthumb 16.5618 -19.8236
lclavicle 5.96354e-015 -2.06736e-014
lhumerus -39.3218 -3.73802 88.0836
lradius 66.7099
lwrist 4.46413
lhand -11.5648 44.5275
lfingers 7.12502
lthumb 14.4764 74.0025
rfemur -13.8058 2.27233 23.5987
rtibia 35.3529
rfoot -18.8867 -16.6202
rtoes 24.7189
lfemur -18.9596 0.251308 -16.8314
ltibia 42.3696
lfoot -15.6932 4.87188
ltoes 7.69102
426
root -2.50223 18.0538 5.72755 180.405 102.615 -177.613
lowerback 25.1385 1.95908 0.729143
upperback 3.99961 3.70335 5.55592
thorax -9.89831 1.97248 4.5458
lowerneck -12.1426 -2.75616 -3.43479
upperneck 20.6482 -1.92666 -3.92591
head 8.43847 -1.458 -0.933752
rclavicle 3.97569e-015 1.74931e-014
rhumerus 1.58327 8.82867 -58.6963
rradius 60.8111
rwrist 28.7843
rhand -8.93795 8.83086
rfingers 7.12502
rthumb 17.0062 -20.4447
lclavicle 3.97569e-015 1.74931e-014
lhumerus -39.1847 -3.77834 88.5029
lradius 66.8556
lwrist 4.5175
lhand -11.4739 44.4775
lfingers 7.12502
lthumb 14.5639 73.9462
rfemur -13.9726 2.03554 23.1248
rtibia 35.7523
rfoot -20.0193 -15.7371
rtoes 29.9251
lfemur -18.9164 0.0102237 -17.5352
ltibia 42.0058
lfoot -15.5958 2.96126
ltoes 2.88096
427
root -2.50036 18.0302 5.73429 180.76 102.58 -177.335
lowerback 24.9176 1.91688 0.721237
upperback 4.01073 3.64803 5.63835
thorax -9.77184 1.94915 4.6651
lowerneck -12.4524 -2.67745 -3.77279
upperneck 21.0546 -1.72077 -3.83762
head 8.64165 -1.38549 -0.835865
rclavicle -1.27222e-014 -2.70347e-014
rhumerus 1.43648 9.35815 -59.4155
rradius 57.9347
rwrist 28.9169
rhand -8.31332 7.76973
rfingers 7.12502
rthumb 17.6073 -21.453
lclavicle -1.27222e-014 -2.70347e-014
lhumerus -39.1413 -3.45003 88.8666
lradius 67.0231
lwrist 4.23238
lhand -11.1942 44.3524
lfingers 7.12502
lthumb 14.8334 73.8014
rfemur -14.2445 1.79862 23.0658
rtibia 36.0728
rfoot -18.7103 -16.1691
rtoes 23.0992
lfemur -19.1399 0.387689 -18.0845
ltibia 41.6678
lfoot -15.1683 2.26888
ltoes -12.8871
428
root -2.49566 18.0205 5.74581 180.004 102.652 -178.109
lowerback 24.7731 1.8721 0.873882
upperback 4.06433 3.64448 5.78742
thorax -9.63725 1.94762 4.7475
lowerneck -12.823 -2.49507 -4.32307
upperneck 21.523 -1.35903 -3.54961
head 8.88228 -1.23906 -0.617544
rclavicle -2.06736e-014 -7.95139e-015
rhumerus 1.40652 9.52734 -60.1408
rradius 54.8521
rwrist 29.609
rhand -7.2288 7.3726
rfingers 7.12502
rthumb 18.6508 -21.7533
lclavicle -2.06736e-014 -7.95139e-015
lhumerus -39.1415 -3.21418 89.0671
lradius 67.1805
lwrist 3.77018
lhand -11.1275 44.6546
lfingers 7.12502
lthumb 14.8977 74.0989
rfemur -14.3567 1.73887 23.318
rtibia 36.3393
rfoot -18.0407 -16.5244
rtoes 18.6089
lfemur -19.1447 0.550892 -18.055
ltibia 41.3274
lfoot -15.3814 0.107854
ltoes -14.9856
429
root -2.49045 18.0107 5.7545 179.789 102.703 -178.336
lowerback 24.7499 1.95086 1.35891
upperback 4.00274 3.86014 5.68813
thorax -9.67463 2.02865 4.28296
lowerneck -12.7345 -2.62922 -4.26905
upperneck 21.552 -1.52711 -3.6729
head 8.87487 -1.32379 -0.686337
rclavicle 1.98785e-014 1.43125e-014
rhumerus 0.80557 8.66255 -61.1463
rradius 51.819
rwrist 30.4895
rhand -6.26625 6.69983
rfingers 7.12502
rthumb 19.5764 -22.3346
lclavicle 1.98785e-014 1.43125e-014
lhumerus -39.2706 -3.75744 89.2898
lradius 67.342
lwrist 3.16759
lhand -10.9074 44.3796
lfingers 7.12502
lthumb 15.1097 73.808
rfemur -14.4025 1.80383 23.4022
rtibia 36.4887
rfoot -18.0282 -16.5256
rtoes 18.0152
lfemur -19.1311 0.794969 -18.1945
ltibia 40.9935
lfoot -15.8503 -1.61309
ltoes -16.7902
430
root -2.484 18.0019 5.75636 179.6 102.766 -178.419
lowerback 24.9088 2.09434 1.93336
upperback 3.94577 4.19995 5.62651
thorax -9.80251 2.16573 3.76581
lowerneck -12.3605 -2.99728 -4.19863
upperneck 21.2225 -2.02508 -3.9503
head 8.68999 -1.56927 -0.83753
rclavicle -1.43125e-014 -9.54166e-015
rhumerus 0.113704 7.49994 -61.8724
rradius 48.8652
rwrist 31.2361
rhand -5.22398 5.99001
rfingers 7.12502
rthumb 20.5782 -22.9393
lclavicle -1.43125e-014 -9.54166e-015
lhumerus -39.4932 -4.76597 89.7936
lradius 67.6796
lwrist 3.35366
lhand -10.7204 44.2461
lfingers 7.12502
lthumb 15.2898 73.6609
rfemur -14.2944 1.38521 23.4031
rtibia 36.5759
rfoot -18.4161 -15.9053
rtoes 20.3936
lfemur -18.9416 0.749593 -18.3557
ltibia 40.6067
lfoot -16.3092 -3.25617
ltoes -18.4541
431
root -2.47813 18.0041 5.7554 179.308 102.771 -178.695
lowerback 24.9653 2.14669 2.3159
upperback 3.88295 4.38332 5.68202
thorax -9.89183 2.23924 3.54564
lowerneck -12.1687 -3.22545 -4.11375
upperneck 21.1014 -2.28391 -4.33491
head 8.60819 -1.71665 -1.00423
rclavicle -2.14687e-014 3.33958e-014
rhumerus -0.344669 6.37205 -62.5103
rradius 45.8366
rwrist 32.0304
rhand -3.88349 5.3828
rfingers 7.12502
rthumb 21.8658 -23.4017
lclavicle -2.14687e-014 3.33958e-014
lhumerus -39.6969 -5.23252 90.2081
lradius 67.9004
lwrist 3.49809
lhand -10.692 44.2
lfingers 7.12502
lthumb 15.3172 73.6128
rfemur -14.2719 1.02162 23.4434
rtibia 36.6347
rfoot -19.8641 -14.8778
rtoes 28.0341
lfemur -18.7272 -0.892883 -18.4128
ltibia 40.1609
lfoot -16.8741 -4.017
ltoes -14.9601
432
root -2.46925 18.0009 5.76138 180.539 102.822 -177.527
lowerback 24.8005 2.25278 2.08081
upperback 3.88168 4.4526 5.7226
thorax -9.83137 2.28124 3.70744
lowerneck -12.2037 -3.28155 -4.03364
upperneck 21.1145 -2.31118 -4.60679
head 8.615 -1.74989 -1.11269
rclavicle -5.08889e-014 -3.33958e-014
rhumerus -0.567917 5.19488 -63.2821
rradius 42.7841
rwrist 32.3665
rhand -2.45172 4.47833
rfingers 7.12502
rthumb 23.2401 -24.1393
lclavicle -5.08889e-014 -3.33958e-014
lhumerus -39.7951 -4.86365 90.453
lradius 67.9576
lwrist 2.74182
lhand -10.0724 43.8226
lfingers 7.12502
lthumb 15.9139 73.1888
rfemur -14.393 1.20079 23.1158
rtibia 36.7358
rfoot -19.4295 -14.9999
rtoes 25.5747
lfemur -18.709 -1.06959 -19.015
ltibia 39.578
lfoot -17.4127 -3.84024
ltoes -20.1336
433
root -2.45698 17.997 5.76544 180.657 102.895 -177.493
lowerback 24.6704 2.38916 2.16227
upperback 3.83078 4.65889 5.82806
thorax -9.83649 2.378 3.71396
lowerneck -12.2362 -3.43873 -4.11732
upperneck 21.2373 -2.45576 -4.77808
head 8.66283 -1.84157 -1.17511
rclavicle -1.66979e-014 4.77083e-015
rhumerus -1.03758 3.93491 -63.8609
rradius 39.9845
rwrist 31.8061
rhand -1.13823 3.23034
rfingers 7.12502
rthumb 24.4997 -25.2226
lclavicle -1.66979e-014 4.77083e-015
lhumerus -39.9773 -4.65084 90.8184
lradius 67.9447
lwrist 1.85645
lhand -9.85936 43.7053
lfingers 7.12502
lthumb 16.1191 73.055
rfemur -14.4811 1.44534 23.0623
rtibia 36.8676
rfoot -19.6397 -14.7356
rtoes 25.8392
lfemur -18.5664 -1.24724 -19.2158
ltibia 38.9037
lfoot -17.5693 -4.36746
ltoes -21.0066
434
root -2.44417 17.9981 5.76963 181.605 102.991 -176.579
lowerback 24.5899 2.51842 2.06182
upperback 3.80908 4.80384 5.89162
thorax -9.84146 2.45115 3.79731
lowerneck -12.2594 -3.47115 -4.30858
upperneck 21.3314 -2.41388 -4.91001
head 8.70345 -1.84951 -1.18548
rclavicle -1.82882e-014 -3.49861e-014
rhumerus -1.31916 2.20107 -64.3502
rradius 37.0226
rwrist 31.2553
rhand -0.342202 2.52376
rfingers 7.12502
rthumb 25.2626 -25.8237
lclavicle -1.82882e-014 -3.49861e-014
lhumerus -40.2055 -4.58592 91.2326
lradius 68.0567
lwrist 1.53326
lhand -10.1246 43.9033
lfingers 7.12502
lthumb 15.8637 73.2735
rfemur -14.5445 1.55837 22.7976
rtibia 37.0023
rfoot -21.1576 -13.6385
rtoes 32.8264
lfemur -18.3296 -1.67814 -19.5559
ltibia 38.1412
lfoot -17.6107 -5.1577
ltoes -19.4419
435
root -2.43753 17.9872 5.77029 183.028 102.998 -175.192
lowerback 24.6166 2.55683 1.96192
upperback 3.76608 4.82842 5.8844
thorax -9.91296 2.4647 3.83773
lowerneck -12.3748 -3.44181 -4.52926
upperneck 21.4905 -2.29524 -4.93603
head 8.78559 -1.81633 -1.14986
rclavicle -1.27222e-014 -3.18055e-014
rhumerus -1.62813 -0.310353 -65.009
rradius 34.3466
rwrist 30.7691
rhand 0.136791 2.48393
rfingers 7.12502
rthumb 25.7214 -25.7979
lclavicle -1.27222e-014 -3.18055e-014
lhumerus -40.4373 -4.35488 91.5955
lradius 68.1032
lwrist 1.07787
lhand -10.5966 44.0157
lfingers 7.12502
lthumb 15.4091 73.4214
rfemur -14.6686 1.58472 22.4242
rtibia 37.1531
rfoot -21.1834 -13.5168
rtoes 32.2103
lfemur -18.3172 -1.58707 -20.3046
ltibia 37.3867
lfoot -18.0755 -3.83962
ltoes -28.904
